# xmcd CD database file
#
# Track frame offsets:
#	150
#	15530
#	30316
#	45345
#	64046
#	76834
#	92349
#	111995
#	125809
#	138057
#	152438
#	166171
#
# Disc length: 2434 seconds
#
# Revision: 0
# Processed by: cddbd v1.4PL0 Copyright (c) Steve Scherf et al.
# Submitted via: CDex 1.40Release
#
DISCID=7f09800c
DTITLE=Shelly Bush - Shelly Bush
DYEAR=1900
DGENRE=Country
TTITLE0=Keep Messin' With Me
TTITLE1=Wrong
TTITLE2=Look Where It Got Me
TTITLE3=Love Without Fear
TTITLE4=Finally Hit Home
TTITLE5=Right Next To Me
TTITLE6=Heart He's Using You
TTITLE7=Why Cry
TTITLE8=Crazy Again
TTITLE9=You're The Break
TTITLE10=This Is My First Time
TTITLE11=Anything
EXTD=ID3G: 2
EXTT0=
EXTT1=
EXTT2=
EXTT3=
EXTT4=
EXTT5=
EXTT6=
EXTT7=
EXTT8=
EXTT9=
EXTT10=
EXTT11=
PLAYORDER=
